<?xml version="1.0" encoding="iso-8859-1"?>
<!-- Uploaded to: SVG Repo, www.svgrepo.com, Generator: SVG Repo Mixer Tools -->
<svg width="64" height="64" version="1.1" id="Layer_1" xmlns="http://www.w3.org/2000/svg" xmlns:xlink="http://www.w3.org/1999/xlink" 
	 viewBox="0 0 511.987 511.987" xml:space="preserve">
<g>
	<path style="fill:#ED5564;" d="M194.902,271.99h-31.859c-5.891,0-10.664-4.773-10.664-10.664c0-3.195,3.562-39.843,16.453-53.334
		c10.898-11.414,31.178-0.281,33.85,0.109c5.828,0.852,9.859,6.273,9.008,12.101l-6.234,42.663
		C204.69,268.107,200.19,271.99,194.902,271.99z"/>
	<path style="fill:#ED5564;" d="M32,90.659c-5.89,0-10.664-4.773-10.664-10.664V69.331c0-5.89,4.773-10.671,10.664-10.671
		s10.664,4.781,10.664,10.671v10.664C42.664,85.886,37.89,90.659,32,90.659z"/>
	<path style="fill:#ED5564;" d="M74.663,90.659c-5.89,0-10.664-4.773-10.664-10.664V69.331c0-5.89,4.773-10.671,10.664-10.671
		c5.891,0,10.671,4.781,10.671,10.671v10.664C85.334,85.886,80.553,90.659,74.663,90.659z"/>
	<path style="fill:#ED5564;" d="M117.333,90.659c-5.89,0-10.671-4.773-10.671-10.664V69.331c0-5.89,4.781-10.671,10.671-10.671
		c5.891,0,10.664,4.781,10.664,10.671v10.664C127.997,85.886,123.224,90.659,117.333,90.659z"/>
</g>
<path style="fill:#FFCE54;" d="M330.648,207.992c0,5.867-4.781,10.664-10.656,10.664H10.664C4.797,218.656,0,213.859,0,207.992
	V79.995c0-5.867,4.797-10.664,10.664-10.664h309.328c5.875,0,10.656,4.797,10.656,10.664L330.648,207.992L330.648,207.992z"/>
<path style="fill:#CCD1D9;" d="M501.331,154.657H394.645c-5.874,0-10.655-4.773-10.655-10.664c0-5.89,4.781-10.664,10.655-10.664
	h106.686c5.875,0,10.656,4.773,10.656,10.664S507.206,154.657,501.331,154.657z"/>
<polygon style="fill:#E6E9ED;" points="394.645,175.993 330.648,186.656 330.648,101.33 394.645,111.994 "/>
<path style="fill:#CCD1D9;" d="M362.647,154.657h-21.312c-5.906,0-10.688-4.773-10.688-10.664c0-5.89,4.781-10.664,10.688-10.664
	h21.312c5.906,0,10.688,4.773,10.688,10.664S368.554,154.657,362.647,154.657z"/>
<path style="fill:#E6E9ED;" d="M437.333,165.329c-5.906,0-10.688-4.781-10.688-10.672v-21.328c0-5.89,4.781-10.671,10.688-10.671
	c5.875,0,10.655,4.781,10.655,10.671v21.328C447.988,160.548,443.208,165.329,437.333,165.329z"/>
<g>
	<path style="fill:#F6BB42;" d="M298.649,122.658h-10.656c-5.891,0-10.655-4.773-10.655-10.664s4.765-10.664,10.655-10.664h10.656
		c5.905,0,10.687,4.773,10.687,10.664S304.555,122.658,298.649,122.658z"/>
	<path style="fill:#F6BB42;" d="M298.649,154.657h-10.656c-5.891,0-10.655-4.773-10.655-10.664c0-5.89,4.765-10.664,10.655-10.664
		h10.656c5.905,0,10.687,4.773,10.687,10.664S304.555,154.657,298.649,154.657z"/>
	<path style="fill:#F6BB42;" d="M298.649,186.656h-10.656c-5.891,0-10.655-4.773-10.655-10.664s4.765-10.664,10.655-10.664h10.656
		c5.905,0,10.687,4.773,10.687,10.664S304.555,186.656,298.649,186.656z"/>
</g>
<path style="fill:#E6E9ED;" d="M479.987,165.329c-5.891,0-10.656-4.781-10.656-10.672v-21.328c0-5.89,4.766-10.671,10.656-10.671
	s10.656,4.781,10.656,10.671v21.328C490.643,160.548,485.878,165.329,479.987,165.329z"/>
<g>
	<path style="fill:#F6BB42;" d="M117.333,133.329H53.335c-5.89,0-10.671-4.781-10.671-10.671s4.781-10.664,10.671-10.664h63.998
		c5.891,0,10.664,4.773,10.664,10.664C127.997,128.549,123.224,133.329,117.333,133.329z"/>
	<path style="fill:#F6BB42;" d="M117.333,175.993H53.335c-5.89,0-10.671-4.773-10.671-10.664s4.781-10.672,10.671-10.672h63.998
		c5.891,0,10.664,4.781,10.664,10.672C127.997,171.219,123.224,175.993,117.333,175.993z"/>
	<rect x="271.994" y="69.334" style="fill:#F6BB42;" width="21.343" height="149.32"/>
	<rect x="191.994" y="69.334" style="fill:#F6BB42;" width="21.335" height="149.32"/>
	<polygon style="fill:#F6BB42;" points="181.332,218.655 85.334,218.655 63.999,357.332 159.996,357.332 	"/>
</g>
<path style="fill:#ED5564;" d="M213.331,442.639c0,5.875-4.805,10.688-10.672,10.688H32c-5.867,0-10.664-4.812-10.664-10.688
	v-85.309c0-5.875,4.797-10.688,10.664-10.688h170.659c5.867,0,10.672,4.812,10.672,10.688L213.331,442.639L213.331,442.639z"/>
<g>
	<rect x="21.336" y="410.643" style="fill:#DA4453;" width="192" height="21.342"/>
	<path style="fill:#DA4453;" d="M53.335,421.329c-5.89,0-10.671,4.764-10.671,10.654v21.344h21.335v-21.344
		C63.999,426.094,59.226,421.329,53.335,421.329z"/>
	<path style="fill:#DA4453;" d="M95.998,421.329c-5.89,0-10.664,4.764-10.664,10.654v21.344h21.328v-21.344
		C106.662,426.094,101.889,421.329,95.998,421.329z"/>
	<path style="fill:#DA4453;" d="M138.661,421.329c-5.89,0-10.664,4.764-10.664,10.654v21.344h21.335v-21.344
		C149.333,426.094,144.552,421.329,138.661,421.329z"/>
	<path style="fill:#DA4453;" d="M181.332,421.329c-5.89,0-10.671,4.764-10.671,10.654v21.344h21.335v-21.344
		C191.996,426.094,187.223,421.329,181.332,421.329z"/>
</g>
</svg>